<svg xmlns="http://www.w3.org/2000/svg" xmlns:xlink="http://www.w3.org/1999/xlink" width="600" height="400" viewBox="0 0 2400 1600">
<defs>
  <clipPath id="clip060">
    <rect x="0" y="0" width="2400" height="1600"></rect>
  </clipPath>
</defs>
<path clip-path="url(#clip060)" d="
M0 1600 L2400 1600 L2400 0 L0 0  Z
  " fill="#ffffff" fill-rule="evenodd" fill-opacity="1"></path>
<defs>
  <clipPath id="clip061">
    <rect x="480" y="0" width="1681" height="1600"></rect>
  </clipPath>
</defs>
<path clip-path="url(#clip060)" d="
M112.177 1486.45 L2352.76 1486.45 L2352.76 47.2441 L112.177 47.2441  Z
  " fill="#ffffff" fill-rule="evenodd" fill-opacity="1"></path>
<defs>
  <clipPath id="clip062">
    <rect x="112" y="47" width="2242" height="1440"></rect>
  </clipPath>
</defs>
<polyline clip-path="url(#clip062)" style="stroke:#000000; stroke-linecap:round; stroke-linejoin:round; stroke-width:2; stroke-opacity:0.1; fill:none" points="
  175.59,1486.45 175.59,47.2441 
  "></polyline>
<polyline clip-path="url(#clip062)" style="stroke:#000000; stroke-linecap:round; stroke-linejoin:round; stroke-width:2; stroke-opacity:0.1; fill:none" points="
  812.263,1486.45 812.263,47.2441 
  "></polyline>
<polyline clip-path="url(#clip062)" style="stroke:#000000; stroke-linecap:round; stroke-linejoin:round; stroke-width:2; stroke-opacity:0.1; fill:none" points="
  1448.94,1486.45 1448.94,47.2441 
  "></polyline>
<polyline clip-path="url(#clip062)" style="stroke:#000000; stroke-linecap:round; stroke-linejoin:round; stroke-width:2; stroke-opacity:0.1; fill:none" points="
  2085.61,1486.45 2085.61,47.2441 
  "></polyline>
<polyline clip-path="url(#clip060)" style="stroke:#000000; stroke-linecap:round; stroke-linejoin:round; stroke-width:4; stroke-opacity:1; fill:none" points="
  112.177,1486.45 2352.76,1486.45 
  "></polyline>
<polyline clip-path="url(#clip060)" style="stroke:#000000; stroke-linecap:round; stroke-linejoin:round; stroke-width:4; stroke-opacity:1; fill:none" points="
  175.59,1486.45 175.59,1467.55 
  "></polyline>
<polyline clip-path="url(#clip060)" style="stroke:#000000; stroke-linecap:round; stroke-linejoin:round; stroke-width:4; stroke-opacity:1; fill:none" points="
  812.263,1486.45 812.263,1467.55 
  "></polyline>
<polyline clip-path="url(#clip060)" style="stroke:#000000; stroke-linecap:round; stroke-linejoin:round; stroke-width:4; stroke-opacity:1; fill:none" points="
  1448.94,1486.45 1448.94,1467.55 
  "></polyline>
<polyline clip-path="url(#clip060)" style="stroke:#000000; stroke-linecap:round; stroke-linejoin:round; stroke-width:4; stroke-opacity:1; fill:none" points="
  2085.61,1486.45 2085.61,1467.55 
  "></polyline>
<path clip-path="url(#clip060)" d="M175.59 1517.37 Q171.979 1517.37 170.15 1520.93 Q168.344 1524.47 168.344 1531.6 Q168.344 1538.71 170.15 1542.27 Q171.979 1545.82 175.59 1545.82 Q179.224 1545.82 181.03 1542.27 Q182.858 1538.71 182.858 1531.6 Q182.858 1524.47 181.03 1520.93 Q179.224 1517.37 175.59 1517.37 M175.59 1513.66 Q181.4 1513.66 184.455 1518.27 Q187.534 1522.85 187.534 1531.6 Q187.534 1540.33 184.455 1544.94 Q181.4 1549.52 175.59 1549.52 Q169.78 1549.52 166.701 1544.94 Q163.645 1540.33 163.645 1531.6 Q163.645 1522.85 166.701 1518.27 Q169.78 1513.66 175.59 1513.66 Z" fill="#000000" fill-rule="evenodd" fill-opacity="1"></path><path clip-path="url(#clip060)" d="M802.645 1544.91 L810.283 1544.91 L810.283 1518.55 L801.973 1520.21 L801.973 1515.95 L810.237 1514.29 L814.913 1514.29 L814.913 1544.91 L822.552 1544.91 L822.552 1548.85 L802.645 1548.85 L802.645 1544.91 Z" fill="#000000" fill-rule="evenodd" fill-opacity="1"></path><path clip-path="url(#clip060)" d="M1443.59 1544.91 L1459.91 1544.91 L1459.91 1548.85 L1437.96 1548.85 L1437.96 1544.91 Q1440.63 1542.16 1445.21 1537.53 Q1449.81 1532.88 1451 1531.53 Q1453.24 1529.01 1454.12 1527.27 Q1455.02 1525.51 1455.02 1523.82 Q1455.02 1521.07 1453.08 1519.33 Q1451.16 1517.6 1448.06 1517.6 Q1445.86 1517.6 1443.4 1518.36 Q1440.97 1519.13 1438.19 1520.68 L1438.19 1515.95 Q1441.02 1514.82 1443.47 1514.24 Q1445.93 1513.66 1447.96 1513.66 Q1453.33 1513.66 1456.53 1516.35 Q1459.72 1519.03 1459.72 1523.52 Q1459.72 1525.65 1458.91 1527.57 Q1458.13 1529.47 1456.02 1532.07 Q1455.44 1532.74 1452.34 1535.95 Q1449.24 1539.15 1443.59 1544.91 Z" fill="#000000" fill-rule="evenodd" fill-opacity="1"></path><path clip-path="url(#clip060)" d="M2089.86 1530.21 Q2093.21 1530.93 2095.09 1533.2 Q2096.99 1535.47 2096.99 1538.8 Q2096.99 1543.92 2093.47 1546.72 Q2089.95 1549.52 2083.47 1549.52 Q2081.29 1549.52 2078.98 1549.08 Q2076.68 1548.66 2074.23 1547.81 L2074.23 1543.29 Q2076.18 1544.43 2078.49 1545.01 Q2080.8 1545.58 2083.33 1545.58 Q2087.73 1545.58 2090.02 1543.85 Q2092.33 1542.11 2092.33 1538.8 Q2092.33 1535.75 2090.18 1534.03 Q2088.05 1532.3 2084.23 1532.3 L2080.2 1532.3 L2080.2 1528.45 L2084.42 1528.45 Q2087.86 1528.45 2089.69 1527.09 Q2091.52 1525.7 2091.52 1523.11 Q2091.52 1520.45 2089.62 1519.03 Q2087.75 1517.6 2084.23 1517.6 Q2082.31 1517.6 2080.11 1518.01 Q2077.91 1518.43 2075.27 1519.31 L2075.27 1515.14 Q2077.93 1514.4 2080.25 1514.03 Q2082.59 1513.66 2084.65 1513.66 Q2089.97 1513.66 2093.07 1516.09 Q2096.18 1518.5 2096.18 1522.62 Q2096.18 1525.49 2094.53 1527.48 Q2092.89 1529.45 2089.86 1530.21 Z" fill="#000000" fill-rule="evenodd" fill-opacity="1"></path><polyline clip-path="url(#clip062)" style="stroke:#000000; stroke-linecap:round; stroke-linejoin:round; stroke-width:2; stroke-opacity:0.1; fill:none" points="
  112.177,1445.54 2352.76,1445.54 
  "></polyline>
<polyline clip-path="url(#clip062)" style="stroke:#000000; stroke-linecap:round; stroke-linejoin:round; stroke-width:2; stroke-opacity:0.1; fill:none" points="
  112.177,1073.22 2352.76,1073.22 
  "></polyline>
<polyline clip-path="url(#clip062)" style="stroke:#000000; stroke-linecap:round; stroke-linejoin:round; stroke-width:2; stroke-opacity:0.1; fill:none" points="
  112.177,700.909 2352.76,700.909 
  "></polyline>
<polyline clip-path="url(#clip062)" style="stroke:#000000; stroke-linecap:round; stroke-linejoin:round; stroke-width:2; stroke-opacity:0.1; fill:none" points="
  112.177,328.593 2352.76,328.593 
  "></polyline>
<polyline clip-path="url(#clip060)" style="stroke:#000000; stroke-linecap:round; stroke-linejoin:round; stroke-width:4; stroke-opacity:1; fill:none" points="
  112.177,1486.45 112.177,47.2441 
  "></polyline>
<polyline clip-path="url(#clip060)" style="stroke:#000000; stroke-linecap:round; stroke-linejoin:round; stroke-width:4; stroke-opacity:1; fill:none" points="
  112.177,1445.54 131.075,1445.54 
  "></polyline>
<polyline clip-path="url(#clip060)" style="stroke:#000000; stroke-linecap:round; stroke-linejoin:round; stroke-width:4; stroke-opacity:1; fill:none" points="
  112.177,1073.22 131.075,1073.22 
  "></polyline>
<polyline clip-path="url(#clip060)" style="stroke:#000000; stroke-linecap:round; stroke-linejoin:round; stroke-width:4; stroke-opacity:1; fill:none" points="
  112.177,700.909 131.075,700.909 
  "></polyline>
<polyline clip-path="url(#clip060)" style="stroke:#000000; stroke-linecap:round; stroke-linejoin:round; stroke-width:4; stroke-opacity:1; fill:none" points="
  112.177,328.593 131.075,328.593 
  "></polyline>
<path clip-path="url(#clip060)" d="M64.2328 1431.34 Q60.6217 1431.34 58.793 1434.9 Q56.9875 1438.45 56.9875 1445.57 Q56.9875 1452.68 58.793 1456.25 Q60.6217 1459.79 64.2328 1459.79 Q67.867 1459.79 69.6726 1456.25 Q71.5013 1452.68 71.5013 1445.57 Q71.5013 1438.45 69.6726 1434.9 Q67.867 1431.34 64.2328 1431.34 M64.2328 1427.64 Q70.0429 1427.64 73.0985 1432.24 Q76.1772 1436.82 76.1772 1445.57 Q76.1772 1454.3 73.0985 1458.91 Q70.0429 1463.49 64.2328 1463.49 Q58.4226 1463.49 55.344 1458.91 Q52.2884 1454.3 52.2884 1445.57 Q52.2884 1436.82 55.344 1432.24 Q58.4226 1427.64 64.2328 1427.64 Z" fill="#000000" fill-rule="evenodd" fill-opacity="1"></path><path clip-path="url(#clip060)" d="M59.8578 1086.57 L76.1772 1086.57 L76.1772 1090.5 L54.2328 1090.5 L54.2328 1086.57 Q56.8949 1083.81 61.4782 1079.19 Q66.0846 1074.53 67.2652 1073.19 Q69.5105 1070.67 70.3902 1068.93 Q71.2929 1067.17 71.2929 1065.48 Q71.2929 1062.73 69.3485 1060.99 Q67.4272 1059.25 64.3254 1059.25 Q62.1263 1059.25 59.6726 1060.02 Q57.2421 1060.78 54.4643 1062.33 L54.4643 1057.61 Q57.2884 1056.48 59.7421 1055.9 Q62.1958 1055.32 64.2328 1055.32 Q69.6031 1055.32 72.7976 1058 Q75.992 1060.69 75.992 1065.18 Q75.992 1067.31 75.1818 1069.23 Q74.3948 1071.13 72.2883 1073.72 Q71.7096 1074.39 68.6078 1077.61 Q65.5059 1080.81 59.8578 1086.57 Z" fill="#000000" fill-rule="evenodd" fill-opacity="1"></path><path clip-path="url(#clip060)" d="M66.5939 687.703 L54.7884 706.152 L66.5939 706.152 L66.5939 687.703 M65.367 683.629 L71.2466 683.629 L71.2466 706.152 L76.1772 706.152 L76.1772 710.041 L71.2466 710.041 L71.2466 718.189 L66.5939 718.189 L66.5939 710.041 L50.9921 710.041 L50.9921 705.527 L65.367 683.629 Z" fill="#000000" fill-rule="evenodd" fill-opacity="1"></path><path clip-path="url(#clip060)" d="M64.6495 326.73 Q61.5013 326.73 59.6495 328.882 Q57.8208 331.035 57.8208 334.785 Q57.8208 338.512 59.6495 340.688 Q61.5013 342.841 64.6495 342.841 Q67.7976 342.841 69.6263 340.688 Q71.4781 338.512 71.4781 334.785 Q71.4781 331.035 69.6263 328.882 Q67.7976 326.73 64.6495 326.73 M73.9318 312.077 L73.9318 316.336 Q72.1726 315.503 70.367 315.063 Q68.5846 314.623 66.8254 314.623 Q62.1958 314.623 59.7421 317.748 Q57.3115 320.873 56.9643 327.193 Q58.33 325.179 60.3902 324.114 Q62.4504 323.026 64.9272 323.026 Q70.1355 323.026 73.1448 326.197 Q76.1772 329.345 76.1772 334.785 Q76.1772 340.109 73.029 343.327 Q69.8809 346.544 64.6495 346.544 Q58.6541 346.544 55.4828 341.961 Q52.3116 337.355 52.3116 328.628 Q52.3116 320.433 56.2004 315.572 Q60.0893 310.688 66.6402 310.688 Q68.3994 310.688 70.1818 311.035 Q71.9874 311.383 73.9318 312.077 Z" fill="#000000" fill-rule="evenodd" fill-opacity="1"></path><polyline clip-path="url(#clip062)" style="stroke:#009af9; stroke-linecap:round; stroke-linejoin:round; stroke-width:4; stroke-opacity:1; fill:none" points="
  175.59,1259.38 175.908,1259.38 176.863,1259.38 178.453,1259.38 180.679,1259.38 183.538,1259.38 187.029,1259.38 191.149,1259.38 195.897,1259.38 201.27,1259.37 
  207.263,1259.37 213.874,1259.36 221.099,1259.35 228.932,1259.34 237.371,1259.33 246.408,1259.3 256.04,1259.28 266.259,1259.25 277.061,1259.21 288.439,1259.16 
  300.384,1259.1 312.892,1259.03 325.953,1258.95 339.56,1258.85 353.706,1258.73 368.38,1258.6 383.575,1258.45 399.282,1258.27 415.49,1258.07 432.19,1257.83 
  449.373,1257.57 467.027,1257.28 485.142,1256.94 503.707,1256.57 522.711,1256.15 542.143,1255.69 561.991,1255.18 582.243,1254.62 602.886,1254 623.908,1253.32 
  645.297,1252.58 667.04,1251.77 689.123,1250.9 711.534,1249.96 734.258,1248.94 757.283,1247.86 780.593,1246.69 804.176,1245.45 828.017,1244.13 852.102,1242.73 
  876.415,1241.25 900.944,1239.69 925.671,1238.05 950.584,1236.34 975.666,1234.56 1000.9,1232.7 1026.28,1230.79 1051.78,1228.81 1077.39,1226.77 1103.09,1224.69 
  1128.87,1222.57 1154.72,1220.43 1180.61,1218.27 1206.53,1216.11 1232.47,1213.94 1258.4,1211.8 1284.33,1209.67 1310.22,1207.6 1336.06,1205.56 1361.84,1203.59 
  1387.54,1201.68 1413.15,1199.85 1438.65,1198.07 1464.03,1196.37 1489.27,1194.74 1514.35,1193.18 1539.26,1191.68 1563.99,1190.26 1588.52,1188.94 1612.83,1187.72 
  1636.92,1186.58 1660.76,1185.54 1684.34,1184.58 1707.65,1183.72 1730.67,1182.93 1753.4,1182.24 1775.81,1181.62 1797.89,1181.04 1819.64,1180.53 1841.02,1180.06 
  1862.05,1179.65 1882.69,1179.28 1902.94,1178.96 1922.79,1178.67 1942.22,1178.43 1961.23,1178.22 1979.79,1178.04 1997.91,1177.89 2015.56,1177.77 2032.74,1177.66 
  2049.44,1177.59 2065.65,1177.53 2081.36,1177.48 2096.55,1177.44 2111.23,1177.41 2125.37,1177.38 2138.98,1177.36 2152.04,1177.34 2164.55,1177.33 2176.49,1177.32 
  2187.87,1177.31 2198.67,1177.31 2208.89,1177.3 2218.52,1177.3 2227.56,1177.3 2236,1177.3 2243.83,1177.3 2251.06,1177.3 2257.67,1177.31 2263.66,1177.31 
  2269.04,1177.31 2273.78,1177.31 2277.9,1177.31 2281.4,1177.31 2284.25,1177.31 2286.48,1177.31 2288.07,1177.31 2289.02,1177.31 2289.34,1177.31 
  "></polyline>
<polyline clip-path="url(#clip062)" style="stroke:#e26f46; stroke-linecap:round; stroke-linejoin:round; stroke-width:4; stroke-opacity:1; fill:none" points="
  175.59,1445.54 175.908,1445.45 176.863,1445.17 178.453,1444.7 180.679,1444.05 183.538,1443.21 187.029,1442.19 191.149,1440.98 195.897,1439.59 201.27,1438.01 
  207.263,1436.25 213.874,1434.31 221.099,1432.18 228.932,1429.87 237.371,1427.37 246.408,1424.7 256.04,1421.84 266.259,1418.81 277.061,1415.6 288.439,1412.21 
  300.384,1408.65 312.892,1404.91 325.953,1401 339.56,1396.93 353.706,1392.68 368.38,1388.28 383.575,1383.71 399.282,1378.98 415.49,1374.1 432.19,1369.06 
  449.373,1363.89 467.027,1358.57 485.142,1353.11 503.707,1347.52 522.711,1341.81 542.143,1335.98 561.991,1330.04 582.243,1323.99 602.886,1317.85 623.908,1311.62 
  645.297,1305.31 667.04,1298.94 689.123,1292.5 711.534,1286.01 734.258,1279.48 757.283,1272.93 780.593,1266.35 804.176,1259.77 828.017,1253.18 852.102,1246.62 
  876.415,1240.08 900.944,1233.57 925.671,1227.12 950.584,1220.72 975.666,1214.39 1000.9,1208.13 1026.28,1201.97 1051.78,1195.9 1077.39,1189.94 1103.09,1184.09 
  1128.87,1178.36 1154.72,1172.76 1180.61,1167.28 1206.53,1161.93 1232.47,1156.72 1258.4,1151.64 1284.33,1146.69 1310.22,1141.86 1336.06,1137.17 1361.84,1132.59 
  1387.54,1128.14 1413.15,1123.79 1438.65,1119.49 1464.03,1115.29 1489.27,1111.14 1514.35,1107.06 1539.26,1103.05 1563.99,1099.11 1588.52,1095.25 1612.83,1091.47 
  1636.92,1087.77 1660.76,1084.13 1684.34,1080.57 1707.65,1077.07 1730.67,1073.63 1753.4,1070.25 1775.81,1066.93 1797.89,1063.65 1819.64,1060.42 1841.02,1057.24 
  1862.05,1054.1 1882.69,1051.01 1902.94,1047.97 1922.79,1044.98 1942.22,1042.04 1961.23,1039.15 1979.79,1036.33 1997.91,1033.55 2015.56,1030.84 2032.74,1028.19 
  2049.44,1025.6 2065.65,1023.07 2081.36,1020.61 2096.55,1018.22 2111.23,1015.9 2125.37,1013.64 2138.98,1011.47 2152.04,1009.37 2164.55,1007.35 2176.49,1005.41 
  2187.87,1003.56 2198.67,1001.8 2208.89,1000.12 2218.52,998.535 2227.56,997.042 2236,995.644 2243.83,994.342 2251.06,993.139 2257.67,992.034 2263.66,991.031 
  2269.04,990.13 2273.78,989.332 2277.9,988.639 2281.4,988.05 2284.25,987.568 2286.48,987.192 2288.07,986.923 2289.02,986.762 2289.34,986.708 
  "></polyline>
<polyline clip-path="url(#clip062)" style="stroke:#3da44d; stroke-linecap:round; stroke-linejoin:round; stroke-width:4; stroke-opacity:1; fill:none" points="
  175.59,1445.54 175.908,1445.54 176.863,1445.55 178.453,1445.52 180.679,1445.51 183.538,1445.44 187.029,1445.4 191.149,1445.3 195.897,1445.22 201.27,1445.08 
  207.263,1444.98 213.874,1444.8 221.099,1444.65 228.932,1444.42 237.371,1444.22 246.408,1443.94 256.04,1443.69 266.259,1443.35 277.061,1443.03 288.439,1442.61 
  300.384,1442.22 312.892,1441.72 325.953,1441.25 339.56,1440.66 353.706,1440.1 368.38,1439.41 383.575,1438.74 399.282,1437.95 415.49,1437.17 432.19,1436.26 
  449.373,1435.37 467.027,1434.34 485.142,1433.32 503.707,1432.17 522.711,1431.04 542.143,1429.76 561.991,1428.51 582.243,1427.12 602.886,1425.75 623.908,1424.25 
  645.297,1422.77 667.04,1421.17 689.123,1419.61 711.534,1417.93 734.258,1416.3 757.283,1414.55 780.593,1412.88 804.176,1411.1 828.017,1409.42 852.102,1407.63 
  876.415,1405.99 900.944,1404.23 925.671,1402.66 950.584,1400.97 975.666,1399.56 1000.9,1397.99 1026.28,1396.81 1051.78,1395.43 1077.39,1394.58 1103.09,1393.51 
  1128.87,1393.06 1154.72,1392.42 1180.61,1392.39 1206.53,1392.3 1232.47,1392.65 1258.4,1393.14 1284.33,1393.86 1310.22,1394.91 1336.06,1396.01 1361.84,1397.55 
  1387.54,1399.11 1413.15,1400.64 1438.65,1402.03 1464.03,1403.69 1489.27,1404.99 1514.35,1406.78 1539.26,1407.87 1563.99,1410.4 1588.52,1412.18 1612.83,1414.61 
  1636.92,1416.46 1660.76,1418.85 1684.34,1420.68 1707.65,1423.06 1730.67,1424.79 1753.4,1427.24 1775.81,1428.27 1797.89,1429.91 1819.64,1431.04 1841.02,1432.45 
  1862.05,1433.57 1882.69,1434.8 1902.94,1435.88 1922.79,1436.95 1942.22,1437.98 1961.23,1438.9 1979.79,1439.88 1997.91,1440.65 2015.56,1441.58 2032.74,1442.19 
  2049.44,1443.12 2065.65,1443.26 2081.36,1443.73 2096.55,1443.89 2111.23,1444.25 2125.37,1444.39 2138.98,1444.67 2152.04,1444.78 2164.55,1445 2176.49,1445.08 
  2187.87,1445.25 2198.67,1445.3 2208.89,1445.43 2218.52,1445.45 2227.56,1445.55 2236,1445.56 2243.83,1445.64 2251.06,1445.63 2257.67,1445.69 2263.66,1445.67 
  2269.04,1445.72 2273.78,1445.68 2277.9,1445.71 2281.4,1445.65 2284.25,1445.65 2286.48,1445.59 2288.07,1445.57 2289.02,1445.55 2289.34,1445.54 
  "></polyline>
<polyline clip-path="url(#clip062)" style="stroke:#c271d2; stroke-linecap:round; stroke-linejoin:round; stroke-width:4; stroke-opacity:1; fill:none" points="
  175.59,1259.38 175.908,1259.38 176.863,1259.39 178.453,1259.31 180.679,1259.24 183.538,1259.12 187.029,1259 191.149,1258.84 195.897,1258.68 201.27,1258.47 
  207.263,1258.27 213.874,1258.03 221.099,1257.79 228.932,1257.5 237.371,1257.23 246.408,1256.91 256.04,1256.6 266.259,1256.26 277.061,1255.93 288.439,1255.57 
  300.384,1255.22 312.892,1254.84 325.953,1254.48 339.56,1254.1 353.706,1253.75 368.38,1253.38 383.575,1253.04 399.282,1252.69 415.49,1252.38 432.19,1252.06 
  449.373,1251.8 467.027,1251.53 485.142,1251.33 503.707,1251.14 522.711,1251.02 542.143,1250.92 561.991,1250.91 582.243,1250.91 602.886,1251.03 623.908,1251.16 
  645.297,1251.42 667.04,1251.71 689.123,1252.14 711.534,1252.59 734.258,1253.22 757.283,1253.84 780.593,1254.68 804.176,1255.51 828.017,1256.58 852.102,1257.61 
  876.415,1258.94 900.944,1260.19 925.671,1261.78 950.584,1263.27 975.666,1265.13 1000.9,1266.86 1026.28,1268.99 1051.78,1270.99 1077.39,1273.35 1103.09,1275.62 
  1128.87,1278.13 1154.72,1280.63 1180.61,1283.19 1206.53,1285.79 1232.47,1288.33 1258.4,1290.91 1284.33,1293.41 1310.22,1295.81 1336.06,1298.28 1361.84,1300.3 
  1387.54,1302.85 1413.15,1303.29 1438.65,1304.18 1464.03,1304.84 1489.27,1305.31 1514.35,1306.06 1539.26,1306.09 1563.99,1307.6 1588.52,1308.27 1612.83,1309.35 
  1636.92,1309.85 1660.76,1310.68 1684.34,1310.95 1707.65,1311.62 1730.67,1311.64 1753.4,1312.26 1775.81,1311.48 1797.89,1311.28 1819.64,1310.6 1841.02,1310.22 
  1862.05,1309.56 1882.69,1309.06 1902.94,1308.4 1922.79,1307.81 1942.22,1307.15 1961.23,1306.51 1979.79,1305.85 1997.91,1305.16 2015.56,1304.51 2032.74,1303.78 
  2049.44,1303.18 2065.65,1302.28 2081.36,1301.52 2096.55,1300.71 2111.23,1299.97 2125.37,1299.21 2138.98,1298.51 2152.04,1297.81 2164.55,1297.15 2176.49,1296.52 
  2187.87,1295.91 2198.67,1295.33 2208.89,1294.78 2218.52,1294.26 2227.56,1293.77 2236,1293.32 2243.83,1292.88 2251.06,1292.5 2257.67,1292.13 2263.66,1291.81 
  2269.04,1291.51 2273.78,1291.26 2277.9,1291.02 2281.4,1290.85 2284.25,1290.69 2286.48,1290.59 2288.07,1290.51 2289.02,1290.47 2289.34,1290.46 
  "></polyline>
<polyline clip-path="url(#clip062)" style="stroke:#ac8d18; stroke-linecap:round; stroke-linejoin:round; stroke-width:4; stroke-opacity:1; fill:none" points="
  175.59,156.789 175.908,715.264 176.863,169.879 178.453,1445.52 180.679,1345.14 183.538,1385.4 187.029,1347.62 191.149,1371.41 195.897,1348.58 201.27,1364.51 
  207.263,1348.56 213.874,1359.55 221.099,1347.81 228.932,1355.19 237.371,1346.42 246.408,1350.92 256.04,1344.46 266.259,1346.5 277.061,1341.94 288.439,1341.76 
  300.384,1338.84 312.892,1336.6 325.953,1335.16 339.56,1330.93 353.706,1330.85 368.38,1324.68 383.575,1325.88 399.282,1317.77 415.49,1320.18 432.19,1310.13 
  449.373,1313.69 467.027,1301.68 485.142,1306.32 503.707,1292.35 522.711,1297.98 542.143,1282.06 561.991,1288.54 582.243,1270.74 602.886,1277.85 623.908,1258.32 
  645.297,1265.72 667.04,1244.74 689.123,1251.89 711.534,1229.94 734.258,1236.03 757.283,1213.88 780.593,1217.68 804.176,1196.53 828.017,1196.18 852.102,1177.83 
  876.415,1170.59 900.944,1157.74 925.671,1139.53 950.584,1136.14 975.666,1101.15 1000.9,1112.79 1026.28,1053.4 1051.78,1087.29 1077.39,995.469 1103.09,1058.88 
  1128.87,930.537 1154.72,1026.28 1180.61,866.351 1206.53,987.525 1232.47,810.107 1258.4,939.924 1284.33,764.127 1310.22,881.304 1336.06,727.208 1361.84,813.555 
  1387.54,697.268 1413.15,1445.54 1438.65,672.44 1464.03,1445.54 1489.27,651.383 1514.35,1445.54 1539.26,633.206 1563.99,602.586 1588.52,617.338 1612.83,574.154 
  1636.92,603.397 1660.76,551.347 1684.34,591.06 1707.65,532.512 1730.67,580.092 1753.4,516.539 1775.81,1445.54 1797.89,502.591 1819.64,1445.54 1841.02,490.114 
  1862.05,1445.54 1882.69,478.762 1902.94,1445.54 1922.79,468.273 1942.22,1445.54 1961.23,458.436 1979.79,1445.54 1997.91,449.071 2015.56,1445.54 2032.74,440.015 
  2049.44,1445.54 2065.65,1445.54 2081.36,1445.54 2096.55,1445.54 2111.23,1445.54 2125.37,1445.54 2138.98,1445.54 2152.04,1445.54 2164.55,1445.54 2176.49,1445.54 
  2187.87,1445.54 2198.67,1445.54 2208.89,1445.54 2218.52,1445.54 2227.56,1445.54 2236,1445.54 2243.83,1445.54 2251.06,1445.54 2257.67,1445.54 2263.66,1445.54 
  2269.04,1445.54 2273.78,1430.38 2277.9,1445.54 2281.4,1378.74 2284.25,1445.54 2286.48,1317.64 2288.07,1445.54 2289.02,87.9763 2289.34,1445.54 
  "></polyline>
<path clip-path="url(#clip060)" d="
M1999.87 406.258 L2278.07 406.258 L2278.07 95.2176 L1999.87 95.2176  Z
  " fill="#ffffff" fill-rule="evenodd" fill-opacity="1"></path>
<polyline clip-path="url(#clip060)" style="stroke:#000000; stroke-linecap:round; stroke-linejoin:round; stroke-width:4; stroke-opacity:1; fill:none" points="
  1999.87,406.258 2278.07,406.258 2278.07,95.2176 1999.87,95.2176 1999.87,406.258 
  "></polyline>
<polyline clip-path="url(#clip060)" style="stroke:#009af9; stroke-linecap:round; stroke-linejoin:round; stroke-width:4; stroke-opacity:1; fill:none" points="
  2024.76,147.058 2174.14,147.058 
  "></polyline>
<path clip-path="url(#clip060)" d="M2212.87 166.745 Q2211.07 171.375 2209.36 172.787 Q2207.64 174.199 2204.77 174.199 L2201.37 174.199 L2201.37 170.634 L2203.87 170.634 Q2205.63 170.634 2206.6 169.8 Q2207.57 168.967 2208.75 165.865 L2209.52 163.921 L2199.03 138.412 L2203.55 138.412 L2211.65 158.689 L2219.75 138.412 L2224.26 138.412 L2212.87 166.745 Z" fill="#000000" fill-rule="evenodd" fill-opacity="1"></path><path clip-path="url(#clip060)" d="M2231.55 160.402 L2239.19 160.402 L2239.19 134.037 L2230.88 135.703 L2230.88 131.444 L2239.15 129.778 L2243.82 129.778 L2243.82 160.402 L2251.46 160.402 L2251.46 164.338 L2231.55 164.338 L2231.55 160.402 Z" fill="#000000" fill-rule="evenodd" fill-opacity="1"></path><polyline clip-path="url(#clip060)" style="stroke:#e26f46; stroke-linecap:round; stroke-linejoin:round; stroke-width:4; stroke-opacity:1; fill:none" points="
  2024.76,198.898 2174.14,198.898 
  "></polyline>
<path clip-path="url(#clip060)" d="M2212.87 218.585 Q2211.07 223.215 2209.36 224.627 Q2207.64 226.039 2204.77 226.039 L2201.37 226.039 L2201.37 222.474 L2203.87 222.474 Q2205.63 222.474 2206.6 221.64 Q2207.57 220.807 2208.75 217.705 L2209.52 215.761 L2199.03 190.252 L2203.55 190.252 L2211.65 210.529 L2219.75 190.252 L2224.26 190.252 L2212.87 218.585 Z" fill="#000000" fill-rule="evenodd" fill-opacity="1"></path><path clip-path="url(#clip060)" d="M2234.77 212.242 L2251.09 212.242 L2251.09 216.178 L2229.15 216.178 L2229.15 212.242 Q2231.81 209.488 2236.39 204.858 Q2241 200.205 2242.18 198.863 Q2244.42 196.34 2245.3 194.604 Q2246.21 192.844 2246.21 191.155 Q2246.21 188.4 2244.26 186.664 Q2242.34 184.928 2239.24 184.928 Q2237.04 184.928 2234.59 185.692 Q2232.16 186.455 2229.38 188.006 L2229.38 183.284 Q2232.2 182.15 2234.66 181.571 Q2237.11 180.993 2239.15 180.993 Q2244.52 180.993 2247.71 183.678 Q2250.91 186.363 2250.91 190.854 Q2250.91 192.983 2250.1 194.905 Q2249.31 196.803 2247.2 199.395 Q2246.62 200.067 2243.52 203.284 Q2240.42 206.479 2234.77 212.242 Z" fill="#000000" fill-rule="evenodd" fill-opacity="1"></path><polyline clip-path="url(#clip060)" style="stroke:#3da44d; stroke-linecap:round; stroke-linejoin:round; stroke-width:4; stroke-opacity:1; fill:none" points="
  2024.76,250.738 2174.14,250.738 
  "></polyline>
<path clip-path="url(#clip060)" d="M2212.87 270.425 Q2211.07 275.055 2209.36 276.467 Q2207.64 277.879 2204.77 277.879 L2201.37 277.879 L2201.37 274.314 L2203.87 274.314 Q2205.63 274.314 2206.6 273.48 Q2207.57 272.647 2208.75 269.545 L2209.52 267.601 L2199.03 242.092 L2203.55 242.092 L2211.65 262.369 L2219.75 242.092 L2224.26 242.092 L2212.87 270.425 Z" fill="#000000" fill-rule="evenodd" fill-opacity="1"></path><path clip-path="url(#clip060)" d="M2244.91 249.383 Q2248.27 250.101 2250.14 252.369 Q2252.04 254.638 2252.04 257.971 Q2252.04 263.087 2248.52 265.888 Q2245 268.689 2238.52 268.689 Q2236.35 268.689 2234.03 268.249 Q2231.74 267.832 2229.29 266.976 L2229.29 262.462 Q2231.23 263.596 2233.55 264.175 Q2235.86 264.754 2238.38 264.754 Q2242.78 264.754 2245.07 263.018 Q2247.39 261.281 2247.39 257.971 Q2247.39 254.916 2245.23 253.203 Q2243.11 251.467 2239.29 251.467 L2235.26 251.467 L2235.26 247.624 L2239.47 247.624 Q2242.92 247.624 2244.75 246.258 Q2246.58 244.87 2246.58 242.277 Q2246.58 239.615 2244.68 238.203 Q2242.8 236.768 2239.29 236.768 Q2237.36 236.768 2235.17 237.184 Q2232.97 237.601 2230.33 238.481 L2230.33 234.314 Q2232.99 233.573 2235.3 233.203 Q2237.64 232.833 2239.7 232.833 Q2245.03 232.833 2248.13 235.263 Q2251.23 237.67 2251.23 241.791 Q2251.23 244.661 2249.59 246.652 Q2247.94 248.62 2244.91 249.383 Z" fill="#000000" fill-rule="evenodd" fill-opacity="1"></path><polyline clip-path="url(#clip060)" style="stroke:#c271d2; stroke-linecap:round; stroke-linejoin:round; stroke-width:4; stroke-opacity:1; fill:none" points="
  2024.76,302.578 2174.14,302.578 
  "></polyline>
<path clip-path="url(#clip060)" d="M2212.87 322.265 Q2211.07 326.895 2209.36 328.307 Q2207.64 329.719 2204.77 329.719 L2201.37 329.719 L2201.37 326.154 L2203.87 326.154 Q2205.63 326.154 2206.6 325.32 Q2207.57 324.487 2208.75 321.385 L2209.52 319.441 L2199.03 293.932 L2203.55 293.932 L2211.65 314.209 L2219.75 293.932 L2224.26 293.932 L2212.87 322.265 Z" fill="#000000" fill-rule="evenodd" fill-opacity="1"></path><path clip-path="url(#clip060)" d="M2243.59 289.372 L2231.79 307.821 L2243.59 307.821 L2243.59 289.372 M2242.36 285.298 L2248.24 285.298 L2248.24 307.821 L2253.17 307.821 L2253.17 311.709 L2248.24 311.709 L2248.24 319.858 L2243.59 319.858 L2243.59 311.709 L2227.99 311.709 L2227.99 307.196 L2242.36 285.298 Z" fill="#000000" fill-rule="evenodd" fill-opacity="1"></path><polyline clip-path="url(#clip060)" style="stroke:#ac8d18; stroke-linecap:round; stroke-linejoin:round; stroke-width:4; stroke-opacity:1; fill:none" points="
  2024.76,354.418 2174.14,354.418 
  "></polyline>
<path clip-path="url(#clip060)" d="M2212.87 374.105 Q2211.07 378.735 2209.36 380.147 Q2207.64 381.559 2204.77 381.559 L2201.37 381.559 L2201.37 377.994 L2203.87 377.994 Q2205.63 377.994 2206.6 377.16 Q2207.57 376.327 2208.75 373.225 L2209.52 371.281 L2199.03 345.772 L2203.55 345.772 L2211.65 366.049 L2219.75 345.772 L2224.26 345.772 L2212.87 374.105 Z" fill="#000000" fill-rule="evenodd" fill-opacity="1"></path><path clip-path="url(#clip060)" d="M2230.79 337.138 L2249.15 337.138 L2249.15 341.073 L2235.07 341.073 L2235.07 349.545 Q2236.09 349.198 2237.11 349.036 Q2238.13 348.85 2239.15 348.85 Q2244.93 348.85 2248.31 352.022 Q2251.69 355.193 2251.69 360.61 Q2251.69 366.188 2248.22 369.29 Q2244.75 372.369 2238.43 372.369 Q2236.25 372.369 2233.98 371.998 Q2231.74 371.628 2229.33 370.887 L2229.33 366.188 Q2231.42 367.323 2233.64 367.878 Q2235.86 368.434 2238.34 368.434 Q2242.34 368.434 2244.68 366.327 Q2247.02 364.221 2247.02 360.61 Q2247.02 356.999 2244.68 354.892 Q2242.34 352.786 2238.34 352.786 Q2236.46 352.786 2234.59 353.202 Q2232.73 353.619 2230.79 354.499 L2230.79 337.138 Z" fill="#000000" fill-rule="evenodd" fill-opacity="1"></path></svg>