<svg xmlns="http://www.w3.org/2000/svg" xmlns:xlink="http://www.w3.org/1999/xlink" width="600" height="400" viewBox="0 0 2400 1600">
<defs>
  <clipPath id="clip100">
    <rect x="0" y="0" width="2400" height="1600"></rect>
  </clipPath>
</defs>
<path clip-path="url(#clip100)" d="
M0 1600 L2400 1600 L2400 0 L0 0  Z
  " fill="#ffffff" fill-rule="evenodd" fill-opacity="1"></path>
<defs>
  <clipPath id="clip101">
    <rect x="480" y="0" width="1681" height="1600"></rect>
  </clipPath>
</defs>
<path clip-path="url(#clip100)" d="
M112.177 1486.45 L2352.76 1486.45 L2352.76 47.2441 L112.177 47.2441  Z
  " fill="#ffffff" fill-rule="evenodd" fill-opacity="1"></path>
<defs>
  <clipPath id="clip102">
    <rect x="112" y="47" width="2242" height="1440"></rect>
  </clipPath>
</defs>
<polyline clip-path="url(#clip102)" style="stroke:#000000; stroke-linecap:round; stroke-linejoin:round; stroke-width:2; stroke-opacity:0.1; fill:none" points="
  175.59,1486.45 175.59,47.2441 
  "></polyline>
<polyline clip-path="url(#clip102)" style="stroke:#000000; stroke-linecap:round; stroke-linejoin:round; stroke-width:2; stroke-opacity:0.1; fill:none" points="
  812.263,1486.45 812.263,47.2441 
  "></polyline>
<polyline clip-path="url(#clip102)" style="stroke:#000000; stroke-linecap:round; stroke-linejoin:round; stroke-width:2; stroke-opacity:0.1; fill:none" points="
  1448.94,1486.45 1448.94,47.2441 
  "></polyline>
<polyline clip-path="url(#clip102)" style="stroke:#000000; stroke-linecap:round; stroke-linejoin:round; stroke-width:2; stroke-opacity:0.1; fill:none" points="
  2085.61,1486.45 2085.61,47.2441 
  "></polyline>
<polyline clip-path="url(#clip100)" style="stroke:#000000; stroke-linecap:round; stroke-linejoin:round; stroke-width:4; stroke-opacity:1; fill:none" points="
  112.177,1486.45 2352.76,1486.45 
  "></polyline>
<polyline clip-path="url(#clip100)" style="stroke:#000000; stroke-linecap:round; stroke-linejoin:round; stroke-width:4; stroke-opacity:1; fill:none" points="
  175.59,1486.45 175.59,1467.55 
  "></polyline>
<polyline clip-path="url(#clip100)" style="stroke:#000000; stroke-linecap:round; stroke-linejoin:round; stroke-width:4; stroke-opacity:1; fill:none" points="
  812.263,1486.45 812.263,1467.55 
  "></polyline>
<polyline clip-path="url(#clip100)" style="stroke:#000000; stroke-linecap:round; stroke-linejoin:round; stroke-width:4; stroke-opacity:1; fill:none" points="
  1448.94,1486.45 1448.94,1467.55 
  "></polyline>
<polyline clip-path="url(#clip100)" style="stroke:#000000; stroke-linecap:round; stroke-linejoin:round; stroke-width:4; stroke-opacity:1; fill:none" points="
  2085.61,1486.45 2085.61,1467.55 
  "></polyline>
<path clip-path="url(#clip100)" d="M175.59 1517.37 Q171.979 1517.37 170.15 1520.93 Q168.344 1524.47 168.344 1531.6 Q168.344 1538.71 170.15 1542.27 Q171.979 1545.82 175.59 1545.82 Q179.224 1545.82 181.03 1542.27 Q182.858 1538.71 182.858 1531.6 Q182.858 1524.47 181.03 1520.93 Q179.224 1517.37 175.59 1517.37 M175.59 1513.66 Q181.4 1513.66 184.455 1518.27 Q187.534 1522.85 187.534 1531.6 Q187.534 1540.33 184.455 1544.94 Q181.4 1549.52 175.59 1549.52 Q169.78 1549.52 166.701 1544.94 Q163.645 1540.33 163.645 1531.6 Q163.645 1522.85 166.701 1518.27 Q169.78 1513.66 175.59 1513.66 Z" fill="#000000" fill-rule="evenodd" fill-opacity="1"></path><path clip-path="url(#clip100)" d="M802.645 1544.91 L810.283 1544.91 L810.283 1518.55 L801.973 1520.21 L801.973 1515.95 L810.237 1514.29 L814.913 1514.29 L814.913 1544.91 L822.552 1544.91 L822.552 1548.85 L802.645 1548.85 L802.645 1544.91 Z" fill="#000000" fill-rule="evenodd" fill-opacity="1"></path><path clip-path="url(#clip100)" d="M1443.59 1544.91 L1459.91 1544.91 L1459.91 1548.85 L1437.96 1548.85 L1437.96 1544.91 Q1440.63 1542.16 1445.21 1537.53 Q1449.81 1532.88 1451 1531.53 Q1453.24 1529.01 1454.12 1527.27 Q1455.02 1525.51 1455.02 1523.82 Q1455.02 1521.07 1453.08 1519.33 Q1451.16 1517.6 1448.06 1517.6 Q1445.86 1517.6 1443.4 1518.36 Q1440.97 1519.13 1438.19 1520.68 L1438.19 1515.95 Q1441.02 1514.82 1443.47 1514.24 Q1445.93 1513.66 1447.96 1513.66 Q1453.33 1513.66 1456.53 1516.35 Q1459.72 1519.03 1459.72 1523.52 Q1459.72 1525.65 1458.91 1527.57 Q1458.13 1529.47 1456.02 1532.07 Q1455.44 1532.74 1452.34 1535.95 Q1449.24 1539.15 1443.59 1544.91 Z" fill="#000000" fill-rule="evenodd" fill-opacity="1"></path><path clip-path="url(#clip100)" d="M2089.86 1530.21 Q2093.21 1530.93 2095.09 1533.2 Q2096.99 1535.47 2096.99 1538.8 Q2096.99 1543.92 2093.47 1546.72 Q2089.95 1549.52 2083.47 1549.52 Q2081.29 1549.52 2078.98 1549.08 Q2076.68 1548.66 2074.23 1547.81 L2074.23 1543.29 Q2076.18 1544.43 2078.49 1545.01 Q2080.8 1545.58 2083.33 1545.58 Q2087.73 1545.58 2090.02 1543.85 Q2092.33 1542.11 2092.33 1538.8 Q2092.33 1535.75 2090.18 1534.03 Q2088.05 1532.3 2084.23 1532.3 L2080.2 1532.3 L2080.2 1528.45 L2084.42 1528.45 Q2087.86 1528.45 2089.69 1527.09 Q2091.52 1525.7 2091.52 1523.11 Q2091.52 1520.45 2089.62 1519.03 Q2087.75 1517.6 2084.23 1517.6 Q2082.31 1517.6 2080.11 1518.01 Q2077.91 1518.43 2075.27 1519.31 L2075.27 1515.14 Q2077.93 1514.4 2080.25 1514.03 Q2082.59 1513.66 2084.65 1513.66 Q2089.97 1513.66 2093.07 1516.09 Q2096.18 1518.5 2096.18 1522.62 Q2096.18 1525.49 2094.53 1527.48 Q2092.89 1529.45 2089.86 1530.21 Z" fill="#000000" fill-rule="evenodd" fill-opacity="1"></path><polyline clip-path="url(#clip102)" style="stroke:#000000; stroke-linecap:round; stroke-linejoin:round; stroke-width:2; stroke-opacity:0.1; fill:none" points="
  112.177,1445.72 2352.76,1445.72 
  "></polyline>
<polyline clip-path="url(#clip102)" style="stroke:#000000; stroke-linecap:round; stroke-linejoin:round; stroke-width:2; stroke-opacity:0.1; fill:none" points="
  112.177,1158.49 2352.76,1158.49 
  "></polyline>
<polyline clip-path="url(#clip102)" style="stroke:#000000; stroke-linecap:round; stroke-linejoin:round; stroke-width:2; stroke-opacity:0.1; fill:none" points="
  112.177,871.257 2352.76,871.257 
  "></polyline>
<polyline clip-path="url(#clip102)" style="stroke:#000000; stroke-linecap:round; stroke-linejoin:round; stroke-width:2; stroke-opacity:0.1; fill:none" points="
  112.177,584.028 2352.76,584.028 
  "></polyline>
<polyline clip-path="url(#clip102)" style="stroke:#000000; stroke-linecap:round; stroke-linejoin:round; stroke-width:2; stroke-opacity:0.1; fill:none" points="
  112.177,296.8 2352.76,296.8 
  "></polyline>
<polyline clip-path="url(#clip100)" style="stroke:#000000; stroke-linecap:round; stroke-linejoin:round; stroke-width:4; stroke-opacity:1; fill:none" points="
  112.177,1486.45 112.177,47.2441 
  "></polyline>
<polyline clip-path="url(#clip100)" style="stroke:#000000; stroke-linecap:round; stroke-linejoin:round; stroke-width:4; stroke-opacity:1; fill:none" points="
  112.177,1445.72 131.075,1445.72 
  "></polyline>
<polyline clip-path="url(#clip100)" style="stroke:#000000; stroke-linecap:round; stroke-linejoin:round; stroke-width:4; stroke-opacity:1; fill:none" points="
  112.177,1158.49 131.075,1158.49 
  "></polyline>
<polyline clip-path="url(#clip100)" style="stroke:#000000; stroke-linecap:round; stroke-linejoin:round; stroke-width:4; stroke-opacity:1; fill:none" points="
  112.177,871.257 131.075,871.257 
  "></polyline>
<polyline clip-path="url(#clip100)" style="stroke:#000000; stroke-linecap:round; stroke-linejoin:round; stroke-width:4; stroke-opacity:1; fill:none" points="
  112.177,584.028 131.075,584.028 
  "></polyline>
<polyline clip-path="url(#clip100)" style="stroke:#000000; stroke-linecap:round; stroke-linejoin:round; stroke-width:4; stroke-opacity:1; fill:none" points="
  112.177,296.8 131.075,296.8 
  "></polyline>
<path clip-path="url(#clip100)" d="M64.2328 1431.51 Q60.6217 1431.51 58.793 1435.08 Q56.9875 1438.62 56.9875 1445.75 Q56.9875 1452.86 58.793 1456.42 Q60.6217 1459.96 64.2328 1459.96 Q67.867 1459.96 69.6726 1456.42 Q71.5013 1452.86 71.5013 1445.75 Q71.5013 1438.62 69.6726 1435.08 Q67.867 1431.51 64.2328 1431.51 M64.2328 1427.81 Q70.0429 1427.81 73.0985 1432.42 Q76.1772 1437 76.1772 1445.75 Q76.1772 1454.48 73.0985 1459.08 Q70.0429 1463.67 64.2328 1463.67 Q58.4226 1463.67 55.344 1459.08 Q52.2884 1454.48 52.2884 1445.75 Q52.2884 1437 55.344 1432.42 Q58.4226 1427.81 64.2328 1427.81 Z" fill="#000000" fill-rule="evenodd" fill-opacity="1"></path><path clip-path="url(#clip100)" d="M59.8578 1171.83 L76.1772 1171.83 L76.1772 1175.77 L54.2328 1175.77 L54.2328 1171.83 Q56.8949 1169.08 61.4782 1164.45 Q66.0846 1159.79 67.2652 1158.45 Q69.5105 1155.93 70.3902 1154.19 Q71.2929 1152.43 71.2929 1150.74 Q71.2929 1147.99 69.3485 1146.25 Q67.4272 1144.52 64.3254 1144.52 Q62.1263 1144.52 59.6726 1145.28 Q57.2421 1146.04 54.4643 1147.59 L54.4643 1142.87 Q57.2884 1141.74 59.7421 1141.16 Q62.1958 1140.58 64.2328 1140.58 Q69.6031 1140.58 72.7976 1143.27 Q75.992 1145.95 75.992 1150.44 Q75.992 1152.57 75.1818 1154.49 Q74.3948 1156.39 72.2883 1158.98 Q71.7096 1159.66 68.6078 1162.87 Q65.5059 1166.07 59.8578 1171.83 Z" fill="#000000" fill-rule="evenodd" fill-opacity="1"></path><path clip-path="url(#clip100)" d="M66.5939 858.051 L54.7884 876.5 L66.5939 876.5 L66.5939 858.051 M65.367 853.977 L71.2466 853.977 L71.2466 876.5 L76.1772 876.5 L76.1772 880.389 L71.2466 880.389 L71.2466 888.537 L66.5939 888.537 L66.5939 880.389 L50.9921 880.389 L50.9921 875.875 L65.367 853.977 Z" fill="#000000" fill-rule="evenodd" fill-opacity="1"></path><path clip-path="url(#clip100)" d="M64.6495 582.165 Q61.5013 582.165 59.6495 584.318 Q57.8208 586.471 57.8208 590.22 Q57.8208 593.947 59.6495 596.123 Q61.5013 598.276 64.6495 598.276 Q67.7976 598.276 69.6263 596.123 Q71.4781 593.947 71.4781 590.22 Q71.4781 586.471 69.6263 584.318 Q67.7976 582.165 64.6495 582.165 M73.9318 567.512 L73.9318 571.772 Q72.1726 570.938 70.367 570.498 Q68.5846 570.059 66.8254 570.059 Q62.1958 570.059 59.7421 573.184 Q57.3115 576.309 56.9643 582.628 Q58.33 580.614 60.3902 579.549 Q62.4504 578.461 64.9272 578.461 Q70.1355 578.461 73.1448 581.633 Q76.1772 584.781 76.1772 590.22 Q76.1772 595.545 73.029 598.762 Q69.8809 601.98 64.6495 601.98 Q58.6541 601.98 55.4828 597.396 Q52.3116 592.79 52.3116 584.063 Q52.3116 575.869 56.2004 571.008 Q60.0893 566.123 66.6402 566.123 Q68.3994 566.123 70.1818 566.471 Q71.9874 566.818 73.9318 567.512 Z" fill="#000000" fill-rule="evenodd" fill-opacity="1"></path><path clip-path="url(#clip100)" d="M64.3254 297.668 Q60.9921 297.668 59.0708 299.45 Q57.1726 301.232 57.1726 304.357 Q57.1726 307.482 59.0708 309.265 Q60.9921 311.047 64.3254 311.047 Q67.6587 311.047 69.58 309.265 Q71.5013 307.459 71.5013 304.357 Q71.5013 301.232 69.58 299.45 Q67.6819 297.668 64.3254 297.668 M59.6495 295.677 Q56.6402 294.936 54.9504 292.876 Q53.2838 290.816 53.2838 287.853 Q53.2838 283.709 56.2236 281.302 Q59.1865 278.895 64.3254 278.895 Q69.4874 278.895 72.4272 281.302 Q75.367 283.709 75.367 287.853 Q75.367 290.816 73.6772 292.876 Q72.0105 294.936 69.0244 295.677 Q72.404 296.464 74.279 298.756 Q76.1772 301.047 76.1772 304.357 Q76.1772 309.38 73.0985 312.066 Q70.0429 314.751 64.3254 314.751 Q58.6078 314.751 55.5291 312.066 Q52.4736 309.38 52.4736 304.357 Q52.4736 301.047 54.3717 298.756 Q56.2699 296.464 59.6495 295.677 M57.9365 288.293 Q57.9365 290.978 59.6032 292.482 Q61.293 293.987 64.3254 293.987 Q67.3346 293.987 69.0244 292.482 Q70.7374 290.978 70.7374 288.293 Q70.7374 285.607 69.0244 284.103 Q67.3346 282.598 64.3254 282.598 Q61.293 282.598 59.6032 284.103 Q57.9365 285.607 57.9365 288.293 Z" fill="#000000" fill-rule="evenodd" fill-opacity="1"></path><polyline clip-path="url(#clip102)" style="stroke:#009af9; stroke-linecap:round; stroke-linejoin:round; stroke-width:4; stroke-opacity:1; fill:none" points="
  175.59,1302.1 175.669,1302.1 175.908,1302.1 176.306,1302.1 176.863,1302.1 177.579,1302.1 178.453,1302.1 179.487,1302.1 180.679,1302.1 182.029,1302.1 
  183.538,1302.1 185.205,1302.1 187.029,1302.1 189.011,1302.1 191.149,1302.1 193.445,1302.1 195.897,1302.1 198.506,1302.1 201.27,1302.09 204.189,1302.09 
  207.263,1302.09 210.492,1302.09 213.874,1302.08 217.41,1302.08 221.099,1302.08 224.94,1302.07 228.932,1302.07 233.076,1302.06 237.371,1302.05 241.815,1302.05 
  246.408,1302.04 251.15,1302.03 256.04,1302.02 261.076,1302 266.259,1301.99 271.588,1301.98 277.061,1301.96 282.678,1301.94 288.439,1301.92 294.341,1301.9 
  300.384,1301.87 306.568,1301.85 312.892,1301.82 319.354,1301.78 325.953,1301.75 332.689,1301.71 339.56,1301.67 346.566,1301.63 353.706,1301.58 360.977,1301.53 
  368.38,1301.47 375.913,1301.41 383.575,1301.35 391.365,1301.28 399.282,1301.21 407.324,1301.13 415.49,1301.05 423.779,1300.96 432.19,1300.86 440.722,1300.76 
  449.373,1300.65 458.141,1300.54 467.027,1300.42 476.027,1300.29 485.142,1300.16 494.369,1300.01 503.707,1299.86 513.155,1299.7 522.711,1299.53 532.375,1299.35 
  542.143,1299.16 552.016,1298.97 561.991,1298.76 572.067,1298.54 582.243,1298.32 592.516,1298.08 602.886,1297.83 613.35,1297.57 623.908,1297.29 634.558,1297.01 
  645.297,1296.71 656.125,1296.4 667.04,1296.08 678.04,1295.74 689.123,1295.4 700.289,1295.03 711.534,1294.66 722.858,1294.27 734.258,1293.87 745.734,1293.45 
  757.283,1293.02 768.903,1292.58 780.593,1292.12 792.352,1291.65 804.176,1291.16 816.066,1290.66 828.017,1290.14 840.03,1289.61 852.102,1289.07 864.231,1288.51 
  876.415,1287.94 888.654,1287.36 900.944,1286.76 913.283,1286.16 925.671,1285.53 938.106,1284.9 950.584,1284.26 963.105,1283.6 975.666,1282.93 988.267,1282.25 
  1000.9,1281.57 1013.58,1280.87 1026.28,1280.16 1039.02,1279.45 1051.78,1278.73 1064.57,1278 1077.39,1277.27 1090.23,1276.53 1103.09,1275.78 1115.98,1275.03 
  1128.87,1274.28 1141.79,1273.52 1154.72,1272.77 1167.66,1272.01 1180.61,1271.25 1193.57,1270.49 1206.53,1269.73 1219.5,1268.98 1232.47,1268.23 1245.44,1267.48 
  1258.4,1266.74 1271.37,1266 1284.33,1265.27 1297.28,1264.55 1310.22,1263.83 1323.14,1263.13 1336.06,1262.43 1348.96,1261.75 1361.84,1261.07 1374.7,1260.41 
  1387.54,1259.77 1400.36,1259.14 1413.15,1258.52 1425.92,1257.92 1438.65,1257.33 1451.36,1256.76 1464.03,1256.2 1476.67,1255.65 1489.27,1255.12 1501.83,1254.61 
  1514.35,1254.1 1526.83,1253.62 1539.26,1253.15 1551.65,1252.69 1563.99,1252.25 1576.28,1251.82 1588.52,1251.41 1600.7,1251.01 1612.83,1250.63 1624.9,1250.26 
  1636.92,1249.9 1648.87,1249.56 1660.76,1249.23 1672.58,1248.92 1684.34,1248.62 1696.03,1248.33 1707.65,1248.06 1719.2,1247.8 1730.67,1247.55 1742.08,1247.31 
  1753.4,1247.09 1764.64,1246.88 1775.81,1246.68 1786.89,1246.49 1797.89,1246.32 1808.81,1246.15 1819.64,1245.99 1830.38,1245.85 1841.02,1245.71 1851.58,1245.59 
  1862.05,1245.47 1872.42,1245.37 1882.69,1245.26 1892.87,1245.17 1902.94,1245.08 1912.92,1244.99 1922.79,1244.91 1932.56,1244.83 1942.22,1244.76 1951.78,1244.69 
  1961.23,1244.63 1970.56,1244.57 1979.79,1244.51 1988.91,1244.46 1997.91,1244.41 2006.79,1244.36 2015.56,1244.32 2024.21,1244.28 2032.74,1244.24 2041.15,1244.2 
  2049.44,1244.17 2057.61,1244.14 2065.65,1244.11 2073.57,1244.08 2081.36,1244.06 2089.02,1244.04 2096.55,1244.01 2103.96,1243.99 2111.23,1243.97 2118.37,1243.96 
  2125.37,1243.94 2132.24,1243.93 2138.98,1243.91 2145.58,1243.9 2152.04,1243.89 2158.36,1243.88 2164.55,1243.87 2170.59,1243.86 2176.49,1243.85 2182.25,1243.84 
  2187.87,1243.83 2193.35,1243.82 2198.67,1243.82 2203.86,1243.81 2208.89,1243.81 2213.78,1243.8 2218.52,1243.79 2223.12,1243.79 2227.56,1243.78 2231.86,1243.78 
  2236,1243.78 2239.99,1243.77 2243.83,1243.77 2247.52,1243.77 2251.06,1243.76 2254.44,1243.76 2257.67,1243.76 2260.74,1243.75 2263.66,1243.75 2266.43,1243.75 
  2269.04,1243.75 2271.49,1243.74 2273.78,1243.74 2275.92,1243.74 2277.9,1243.74 2279.73,1243.74 2281.4,1243.74 2282.9,1243.74 2284.25,1243.74 2285.45,1243.74 
  2286.48,1243.74 2287.35,1243.74 2288.07,1243.74 2288.63,1243.74 2289.02,1243.74 2289.26,1243.74 2289.34,1243.74 
  "></polyline>
<polyline clip-path="url(#clip102)" style="stroke:#e26f46; stroke-linecap:round; stroke-linejoin:round; stroke-width:4; stroke-opacity:1; fill:none" points="
  175.59,1445.72 175.669,1445.7 175.908,1445.64 176.306,1445.55 176.863,1445.43 177.579,1445.27 178.453,1445.07 179.487,1444.84 180.679,1444.57 182.029,1444.26 
  183.538,1443.92 185.205,1443.54 187.029,1443.13 189.011,1442.68 191.149,1442.2 193.445,1441.68 195.897,1441.12 198.506,1440.53 201.27,1439.91 204.189,1439.25 
  207.263,1438.55 210.492,1437.82 213.874,1437.05 217.41,1436.24 221.099,1435.4 224.94,1434.53 228.932,1433.62 233.076,1432.68 237.371,1431.7 241.815,1430.68 
  246.408,1429.63 251.15,1428.55 256.04,1427.43 261.076,1426.28 266.259,1425.09 271.588,1423.87 277.061,1422.61 282.678,1421.32 288.439,1420 294.341,1418.64 
  300.384,1417.25 306.568,1415.83 312.892,1414.37 319.354,1412.88 325.953,1411.36 332.689,1409.8 339.56,1408.21 346.566,1406.59 353.706,1404.94 360.977,1403.26 
  368.38,1401.54 375.913,1399.8 383.575,1398.02 391.365,1396.22 399.282,1394.38 407.324,1392.51 415.49,1390.62 423.779,1388.69 432.19,1386.74 440.722,1384.76 
  449.373,1382.75 458.141,1380.72 467.027,1378.66 476.027,1376.57 485.142,1374.46 494.369,1372.32 503.707,1370.16 513.155,1367.97 522.711,1365.76 532.375,1363.53 
  542.143,1361.28 552.016,1359.01 561.991,1356.71 572.067,1354.4 582.243,1352.07 592.516,1349.72 602.886,1347.35 613.35,1344.97 623.908,1342.57 634.558,1340.16 
  645.297,1337.73 656.125,1335.3 667.04,1332.85 678.04,1330.39 689.123,1327.92 700.289,1325.44 711.534,1322.95 722.858,1320.46 734.258,1317.96 745.734,1315.46 
  757.283,1312.95 768.903,1310.45 780.593,1307.94 792.352,1305.43 804.176,1302.92 816.066,1300.42 828.017,1297.91 840.03,1295.42 852.102,1292.92 864.231,1290.44 
  876.415,1287.96 888.654,1285.49 900.944,1283.02 913.283,1280.57 925.671,1278.13 938.106,1275.71 950.584,1273.29 963.105,1270.89 975.666,1268.5 988.267,1266.13 
  1000.9,1263.78 1013.58,1261.44 1026.28,1259.13 1039.02,1256.83 1051.78,1254.54 1064.57,1252.28 1077.39,1250.04 1090.23,1247.82 1103.09,1245.62 1115.98,1243.44 
  1128.87,1241.29 1141.79,1239.15 1154.72,1237.04 1167.66,1234.95 1180.61,1232.89 1193.57,1230.85 1206.53,1228.83 1219.5,1226.84 1232.47,1224.86 1245.44,1222.92 
  1258.4,1221 1271.37,1219.1 1284.33,1217.22 1297.28,1215.37 1310.22,1213.54 1323.14,1211.74 1336.06,1209.96 1348.96,1208.2 1361.84,1206.46 1374.7,1204.75 
  1387.54,1203.05 1400.36,1201.38 1413.15,1199.73 1425.92,1198.11 1438.65,1196.49 1451.36,1194.89 1464.03,1193.31 1476.67,1191.73 1489.27,1190.17 1501.83,1188.62 
  1514.35,1187.09 1526.83,1185.56 1539.26,1184.05 1551.65,1182.54 1563.99,1181.05 1576.28,1179.57 1588.52,1178.1 1600.7,1176.64 1612.83,1175.19 1624.9,1173.75 
  1636.92,1172.32 1648.87,1170.9 1660.76,1169.49 1672.58,1168.09 1684.34,1166.7 1696.03,1165.32 1707.65,1163.95 1719.2,1162.59 1730.67,1161.23 1742.08,1159.89 
  1753.4,1158.56 1764.64,1157.23 1775.81,1155.91 1786.89,1154.61 1797.89,1153.31 1808.81,1152.02 1819.64,1150.74 1830.38,1149.47 1841.02,1148.22 1851.58,1146.97 
  1862.05,1145.73 1872.42,1144.49 1882.69,1143.27 1892.87,1142.05 1902.94,1140.85 1912.92,1139.65 1922.79,1138.46 1932.56,1137.28 1942.22,1136.11 1951.78,1134.95 
  1961.23,1133.8 1970.56,1132.66 1979.79,1131.52 1988.91,1130.4 1997.91,1129.3 2006.79,1128.2 2015.56,1127.11 2024.21,1126.04 2032.74,1124.97 2041.15,1123.92 
  2049.44,1122.88 2057.61,1121.86 2065.65,1120.84 2073.57,1119.84 2081.36,1118.86 2089.02,1117.89 2096.55,1116.93 2103.96,1115.98 2111.23,1115.05 2118.37,1114.14 
  2125.37,1113.24 2132.24,1112.35 2138.98,1111.48 2145.58,1110.63 2152.04,1109.79 2158.36,1108.97 2164.55,1108.16 2170.59,1107.38 2176.49,1106.6 2182.25,1105.85 
  2187.87,1105.11 2193.35,1104.39 2198.67,1103.69 2203.86,1103.01 2208.89,1102.34 2213.78,1101.69 2218.52,1101.06 2223.12,1100.45 2227.56,1099.86 2231.86,1099.29 
  2236,1098.74 2239.99,1098.2 2243.83,1097.69 2247.52,1097.19 2251.06,1096.72 2254.44,1096.27 2257.67,1095.83 2260.74,1095.42 2263.66,1095.02 2266.43,1094.65 
  2269.04,1094.3 2271.49,1093.97 2273.78,1093.66 2275.92,1093.37 2277.9,1093.1 2279.73,1092.86 2281.4,1092.63 2282.9,1092.43 2284.25,1092.24 2285.45,1092.08 
  2286.48,1091.94 2287.35,1091.83 2288.07,1091.73 2288.63,1091.65 2289.02,1091.6 2289.26,1091.57 2289.34,1091.56 
  "></polyline>
<polyline clip-path="url(#clip102)" style="stroke:#3da44d; stroke-linecap:round; stroke-linejoin:round; stroke-width:4; stroke-opacity:1; fill:none" points="
  175.59,1445.72 175.669,1445.71 175.908,1445.71 176.306,1445.71 176.863,1445.7 177.579,1445.7 178.453,1445.69 179.487,1445.68 180.679,1445.67 182.029,1445.66 
  183.538,1445.64 185.205,1445.62 187.029,1445.59 189.011,1445.56 191.149,1445.52 193.445,1445.49 195.897,1445.44 198.506,1445.41 201.27,1445.35 204.189,1445.31 
  207.263,1445.25 210.492,1445.19 213.874,1445.12 217.41,1445.06 221.099,1444.98 224.94,1444.91 228.932,1444.82 233.076,1444.74 237.371,1444.64 241.815,1444.55 
  246.408,1444.44 251.15,1444.33 256.04,1444.21 261.076,1444.1 266.259,1443.96 271.588,1443.83 277.061,1443.68 282.678,1443.54 288.439,1443.38 294.341,1443.22 
  300.384,1443.04 306.568,1442.87 312.892,1442.67 319.354,1442.48 325.953,1442.26 332.689,1442.06 339.56,1441.83 346.566,1441.6 353.706,1441.35 360.977,1441.1 
  368.38,1440.83 375.913,1440.57 383.575,1440.27 391.365,1439.99 399.282,1439.68 407.324,1439.37 415.49,1439.03 423.779,1438.7 432.19,1438.34 440.722,1437.99 
  449.373,1437.61 458.141,1437.24 467.027,1436.83 476.027,1436.43 485.142,1436.01 494.369,1435.58 503.707,1435.13 513.155,1434.69 522.711,1434.21 532.375,1433.74 
  542.143,1433.25 552.016,1432.76 561.991,1432.24 572.067,1431.73 582.243,1431.19 592.516,1430.66 602.886,1430.1 613.35,1429.54 623.908,1428.98 634.558,1428.4 
  645.297,1427.82 656.125,1427.22 667.04,1426.63 678.04,1426.02 689.123,1425.41 700.289,1424.79 711.534,1424.18 722.858,1423.55 734.258,1422.93 745.734,1422.29 
  757.283,1421.68 768.903,1421.04 780.593,1420.44 792.352,1419.8 804.176,1419.2 816.066,1418.57 828.017,1417.99 840.03,1417.37 852.102,1416.81 864.231,1416.2 
  876.415,1415.66 888.654,1415.08 900.944,1414.57 913.283,1414.02 925.671,1413.54 938.106,1413.02 950.584,1412.58 963.105,1412.1 975.666,1411.7 988.267,1411.26 
  1000.9,1410.9 1013.58,1410.52 1026.28,1410.2 1039.02,1409.88 1051.78,1409.61 1064.57,1409.35 1077.39,1409.12 1090.23,1408.93 1103.09,1408.75 1115.98,1408.63 
  1128.87,1408.5 1141.79,1408.46 1154.72,1408.38 1167.66,1408.42 1180.61,1408.4 1193.57,1408.52 1206.53,1408.56 1219.5,1408.77 1232.47,1408.86 1245.44,1409.16 
  1258.4,1409.32 1271.37,1409.71 1284.33,1409.93 1297.28,1410.41 1310.22,1410.7 1323.14,1411.27 1336.06,1411.62 1348.96,1412.27 1361.84,1412.69 1374.7,1413.43 
  1387.54,1413.91 1400.36,1414.72 1413.15,1415.24 1425.92,1416.14 1438.65,1416.58 1451.36,1417.37 1464.03,1417.87 1476.67,1418.65 1489.27,1419.18 1501.83,1419.96 
  1514.35,1420.52 1526.83,1421.28 1539.26,1421.86 1551.65,1422.61 1563.99,1423.2 1576.28,1423.94 1588.52,1424.55 1600.7,1425.27 1612.83,1425.88 1624.9,1426.58 
  1636.92,1427.2 1648.87,1427.88 1660.76,1428.51 1672.58,1429.16 1684.34,1429.79 1696.03,1430.41 1707.65,1431.04 1719.2,1431.65 1730.67,1432.27 1742.08,1432.85 
  1753.4,1433.48 1764.64,1434.02 1775.81,1434.65 1786.89,1435.16 1797.89,1435.79 1808.81,1436.27 1819.64,1436.89 1830.38,1437.34 1841.02,1437.97 1851.58,1438.36 
  1862.05,1439.03 1872.42,1439.17 1882.69,1439.59 1892.87,1439.75 1902.94,1440.12 1912.92,1440.29 1922.79,1440.63 1932.56,1440.79 1942.22,1441.1 1951.78,1441.26 
  1961.23,1441.54 1970.56,1441.69 1979.79,1441.94 1988.91,1442.08 1997.91,1442.32 2006.79,1442.44 2015.56,1442.66 2024.21,1442.77 2032.74,1442.97 2041.15,1443.08 
  2049.44,1443.26 2057.61,1443.35 2065.65,1443.52 2073.57,1443.6 2081.36,1443.75 2089.02,1443.82 2096.55,1443.96 2103.96,1444.02 2111.23,1444.15 2118.37,1444.2 
  2125.37,1444.31 2132.24,1444.35 2138.98,1444.46 2145.58,1444.49 2152.04,1444.58 2158.36,1444.61 2164.55,1444.69 2170.59,1444.71 2176.49,1444.79 2182.25,1444.8 
  2187.87,1444.87 2193.35,1444.87 2198.67,1444.93 2203.86,1444.93 2208.89,1444.99 2213.78,1444.98 2218.52,1445.03 2223.12,1445.02 2227.56,1445.07 2231.86,1445.05 
  2236,1445.1 2239.99,1445.07 2243.83,1445.12 2247.52,1445.09 2251.06,1445.13 2254.44,1445.1 2257.67,1445.15 2260.74,1445.1 2263.66,1445.21 2266.43,1445.24 
  2269.04,1445.32 2271.49,1445.35 2273.78,1445.42 2275.92,1445.45 2277.9,1445.5 2279.73,1445.53 2281.4,1445.57 2282.9,1445.6 2284.25,1445.63 2285.45,1445.65 
  2286.48,1445.67 2287.35,1445.69 2288.07,1445.7 2288.63,1445.71 2289.02,1445.71 2289.26,1445.72 2289.34,1445.72 
  "></polyline>
<polyline clip-path="url(#clip102)" style="stroke:#c271d2; stroke-linecap:round; stroke-linejoin:round; stroke-width:4; stroke-opacity:1; fill:none" points="
  175.59,1302.1 175.669,1302.1 175.908,1302.09 176.306,1302.08 176.863,1302.06 177.579,1302.04 178.453,1302.02 179.487,1301.99 180.679,1301.95 182.029,1301.91 
  183.538,1301.87 185.205,1301.82 187.029,1301.77 189.011,1301.71 191.149,1301.65 193.445,1301.59 195.897,1301.52 198.506,1301.45 201.27,1301.38 204.189,1301.29 
  207.263,1301.21 210.492,1301.12 213.874,1301.04 217.41,1300.94 221.099,1300.84 224.94,1300.74 228.932,1300.64 233.076,1300.53 237.371,1300.42 241.815,1300.3 
  246.408,1300.19 251.15,1300.07 256.04,1299.95 261.076,1299.82 266.259,1299.7 271.588,1299.57 277.061,1299.44 282.678,1299.31 288.439,1299.18 294.341,1299.04 
  300.384,1298.91 306.568,1298.77 312.892,1298.64 319.354,1298.5 325.953,1298.37 332.689,1298.23 339.56,1298.1 346.566,1297.96 353.706,1297.83 360.977,1297.69 
  368.38,1297.57 375.913,1297.43 383.575,1297.32 391.365,1297.19 399.282,1297.08 407.324,1296.95 415.49,1296.85 423.779,1296.74 432.19,1296.65 440.722,1296.54 
  449.373,1296.46 458.141,1296.37 467.027,1296.31 476.027,1296.23 485.142,1296.18 494.369,1296.11 503.707,1296.09 513.155,1296.04 522.711,1296.03 532.375,1296 
  542.143,1296.02 552.016,1296.01 561.991,1296.05 572.067,1296.07 582.243,1296.14 592.516,1296.18 602.886,1296.28 613.35,1296.36 623.908,1296.49 634.558,1296.59 
  645.297,1296.76 656.125,1296.9 667.04,1297.1 678.04,1297.28 689.123,1297.52 700.289,1297.73 711.534,1298.01 722.858,1298.27 734.258,1298.59 745.734,1298.89 
  757.283,1299.25 768.903,1299.61 780.593,1300.01 792.352,1300.41 804.176,1300.85 816.066,1301.3 828.017,1301.79 840.03,1302.29 852.102,1302.82 864.231,1303.38 
  876.415,1303.94 888.654,1304.55 900.944,1305.15 913.283,1305.81 925.671,1306.45 938.106,1307.16 950.584,1307.83 963.105,1308.59 975.666,1309.29 988.267,1310.1 
  1000.9,1310.82 1013.58,1311.68 1026.28,1312.42 1039.02,1313.32 1051.78,1314.08 1064.57,1315.02 1077.39,1315.8 1090.23,1316.77 1103.09,1317.56 1115.98,1318.56 
  1128.87,1319.36 1141.79,1320.4 1154.72,1321.2 1167.66,1322.25 1180.61,1323.06 1193.57,1324.13 1206.53,1324.94 1219.5,1326.02 1232.47,1326.83 1245.44,1327.91 
  1258.4,1328.72 1271.37,1329.79 1284.33,1330.58 1297.28,1331.65 1310.22,1332.42 1323.14,1333.47 1336.06,1334.21 1348.96,1335.24 1361.84,1335.93 1374.7,1336.95 
  1387.54,1337.58 1400.36,1338.59 1413.15,1339.12 1425.92,1340.19 1438.65,1340.17 1451.36,1340.66 1464.03,1340.74 1476.67,1341.11 1489.27,1341.22 1501.83,1341.5 
  1514.35,1341.62 1526.83,1341.83 1539.26,1341.93 1551.65,1342.09 1563.99,1342.18 1576.28,1342.28 1588.52,1342.36 1600.7,1342.41 1612.83,1342.47 1624.9,1342.47 
  1636.92,1342.53 1648.87,1342.49 1660.76,1342.52 1672.58,1342.44 1684.34,1342.46 1696.03,1342.35 1707.65,1342.36 1719.2,1342.21 1730.67,1342.2 1742.08,1342.03 
  1753.4,1342.01 1764.64,1341.8 1775.81,1341.77 1786.89,1341.54 1797.89,1341.5 1808.81,1341.24 1819.64,1341.2 1830.38,1340.91 1841.02,1340.87 1851.58,1340.54 
  1862.05,1340.53 1872.42,1340 1882.69,1339.79 1892.87,1339.31 1902.94,1339.07 1912.92,1338.62 1922.79,1338.36 1932.56,1337.92 1942.22,1337.66 1951.78,1337.23 
  1961.23,1336.97 1970.56,1336.55 1979.79,1336.28 1988.91,1335.88 1997.91,1335.61 2006.79,1335.21 2015.56,1334.94 2024.21,1334.55 2032.74,1334.29 2041.15,1333.91 
  2049.44,1333.65 2057.61,1333.28 2065.65,1333.02 2073.57,1332.66 2081.36,1332.4 2089.02,1332.05 2096.55,1331.81 2103.96,1331.47 2111.23,1331.23 2118.37,1330.9 
  2125.37,1330.66 2132.24,1330.34 2138.98,1330.12 2145.58,1329.81 2152.04,1329.59 2158.36,1329.3 2164.55,1329.09 2170.59,1328.8 2176.49,1328.61 2182.25,1328.33 
  2187.87,1328.14 2193.35,1327.88 2198.67,1327.7 2203.86,1327.45 2208.89,1327.28 2213.78,1327.04 2218.52,1326.89 2223.12,1326.66 2227.56,1326.52 2231.86,1326.3 
  2236,1326.17 2239.99,1325.96 2243.83,1325.85 2247.52,1325.65 2251.06,1325.55 2254.44,1325.36 2257.67,1325.28 2260.74,1325.09 2263.66,1325.09 2266.43,1324.98 
  2269.04,1324.96 2271.49,1324.88 2273.78,1324.86 2275.92,1324.79 2277.9,1324.78 2279.73,1324.73 2281.4,1324.72 2282.9,1324.68 2284.25,1324.67 2285.45,1324.64 
  2286.48,1324.64 2287.35,1324.63 2288.07,1324.62 2288.63,1324.62 2289.02,1324.62 2289.26,1324.62 2289.34,1324.61 
  "></polyline>
<polyline clip-path="url(#clip102)" style="stroke:#ac8d18; stroke-linecap:round; stroke-linejoin:round; stroke-width:4; stroke-opacity:1; fill:none" points="
  175.59,1445.71 175.669,1364.12 175.908,1445.71 176.306,1366.3 176.863,1445.71 177.579,1367.69 178.453,1445.71 179.487,1368.61 180.679,1445.67 182.029,1369.2 
  183.538,1402.77 185.205,1369.54 187.029,1390.21 189.011,1369.69 191.149,1384.46 193.445,1369.68 195.897,1380.91 198.506,1369.53 201.27,1378.3 204.189,1369.25 
  207.263,1376.15 210.492,1368.85 213.874,1374.24 217.41,1368.34 221.099,1372.45 224.94,1367.72 228.932,1370.7 233.076,1367 237.371,1368.94 241.815,1366.16 
  246.408,1367.15 251.15,1365.23 256.04,1365.3 261.076,1364.18 266.259,1363.38 271.588,1363.04 277.061,1361.36 282.678,1361.78 288.439,1359.24 294.341,1360.41 
  300.384,1356.99 306.568,1358.93 312.892,1354.62 319.354,1357.34 325.953,1352.09 332.689,1355.62 339.56,1349.42 346.566,1353.78 353.706,1346.57 360.977,1351.82 
  368.38,1343.54 375.913,1349.72 383.575,1340.31 391.365,1347.49 399.282,1336.88 407.324,1345.11 415.49,1333.21 423.779,1342.59 432.19,1329.3 440.722,1339.91 
  449.373,1325.12 458.141,1337.07 467.027,1320.67 476.027,1334.06 485.142,1315.9 494.369,1330.88 503.707,1310.81 513.155,1327.53 522.711,1305.37 532.375,1323.98 
  542.143,1299.55 552.016,1320.23 561.991,1293.33 572.067,1316.28 582.243,1286.67 592.516,1312.12 602.886,1279.56 613.35,405.378 623.908,1271.97 634.558,400.76 
  645.297,1263.87 656.125,395.9 667.04,1255.24 678.04,390.787 689.123,1246.07 700.289,385.41 711.534,1236.35 722.858,379.759 734.258,1226.08 745.734,373.819 
  757.283,1215.28 768.903,367.579 780.593,1203.97 792.352,361.024 804.176,1192.2 816.066,1256.49 828.017,1180.02 840.03,1249.26 852.102,1167.52 864.231,1241.65 
  876.415,1154.77 888.654,1233.65 900.944,1141.87 913.283,1225.24 925.671,1128.92 938.106,1216.37 950.584,1116 963.105,1207.01 975.666,1103.19 988.267,1197.11 
  1000.9,1090.58 1013.58,1186.64 1026.28,1078.21 1039.02,1175.51 1051.78,1066.12 1064.57,1163.67 1077.39,1054.35 1090.23,1151.03 1103.09,1042.89 1115.98,1137.51 
  1128.87,129.411 1141.79,1123.01 1154.72,118.605 1167.66,1107.45 1180.61,108.108 1193.57,1090.78 1206.53,97.9041 1219.5,1072.96 1232.47,87.9763 1245.44,1054.06 
  1258.4,980.662 1271.37,1034.19 1284.33,971.234 1297.28,1013.62 1310.22,962.031 1323.14,992.678 1336.06,953.041 1348.96,971.777 1361.84,944.25 1374.7,951.337 
  1387.54,935.651 1400.36,931.724 1413.15,927.235 1425.92,913.211 1438.65,1445.71 1451.36,895.938 1464.03,1445.71 1476.67,879.947 1489.27,1445.71 1501.83,865.227 
  1514.35,1445.71 1526.83,851.719 1539.26,1445.71 1551.65,839.334 1563.99,1445.71 1576.28,827.971 1588.52,1445.71 1600.7,817.527 1612.83,1445.71 1624.9,807.905 
  1636.92,1445.71 1648.87,799.016 1660.76,1445.71 1672.58,790.778 1684.34,1445.71 1696.03,783.122 1707.65,1445.71 1719.2,775.984 1730.67,1445.71 1742.08,769.309 
  1753.4,1445.71 1764.64,763.051 1775.81,1445.71 1786.89,757.167 1797.89,1445.71 1808.81,751.621 1819.64,1445.71 1830.38,746.381 1841.02,1445.71 1851.58,741.419 
  1862.05,1445.71 1872.42,1445.71 1882.69,1445.71 1892.87,1445.71 1902.94,1445.71 1912.92,1445.71 1922.79,1445.71 1932.56,1445.71 1942.22,1445.71 1951.78,1445.71 
  1961.23,1445.71 1970.56,1445.71 1979.79,1445.71 1988.91,1445.71 1997.91,1445.71 2006.79,1445.71 2015.56,1445.71 2024.21,1445.71 2032.74,1445.71 2041.15,1445.71 
  2049.44,1445.71 2057.61,1445.71 2065.65,1445.71 2073.57,1445.71 2081.36,1445.71 2089.02,1445.71 2096.55,1445.71 2103.96,1445.71 2111.23,1445.71 2118.37,1445.71 
  2125.37,1445.71 2132.24,1445.71 2138.98,1445.71 2145.58,1445.71 2152.04,1445.71 2158.36,1445.71 2164.55,1445.71 2170.59,1445.71 2176.49,1445.71 2182.25,1445.71 
  2187.87,1445.71 2193.35,1445.71 2198.67,1445.71 2203.86,1445.71 2208.89,1445.71 2213.78,1445.71 2218.52,1445.71 2223.12,1445.71 2227.56,1445.71 2231.86,1445.71 
  2236,1445.71 2239.99,1445.71 2243.83,1445.71 2247.52,1445.71 2251.06,1445.71 2254.44,1445.71 2257.67,1445.71 2260.74,1445.71 2263.66,760.067 2266.43,1445.71 
  2269.04,766.29 2271.49,1445.71 2273.78,774.419 2275.92,1445.71 2277.9,785.091 2279.73,1445.71 2281.4,799.188 2282.9,1445.71 2284.25,817.862 2285.45,1445.71 
  2286.48,842.35 2287.35,1445.71 2288.07,873.261 2288.63,1445.4 2289.02,909.169 2289.26,1414.65 2289.34,1445.71 
  "></polyline>
<path clip-path="url(#clip100)" d="
M1999.87 406.258 L2278.07 406.258 L2278.07 95.2176 L1999.87 95.2176  Z
  " fill="#ffffff" fill-rule="evenodd" fill-opacity="1"></path>
<polyline clip-path="url(#clip100)" style="stroke:#000000; stroke-linecap:round; stroke-linejoin:round; stroke-width:4; stroke-opacity:1; fill:none" points="
  1999.87,406.258 2278.07,406.258 2278.07,95.2176 1999.87,95.2176 1999.87,406.258 
  "></polyline>
<polyline clip-path="url(#clip100)" style="stroke:#009af9; stroke-linecap:round; stroke-linejoin:round; stroke-width:4; stroke-opacity:1; fill:none" points="
  2024.76,147.058 2174.14,147.058 
  "></polyline>
<path clip-path="url(#clip100)" d="M2212.87 166.745 Q2211.07 171.375 2209.36 172.787 Q2207.64 174.199 2204.77 174.199 L2201.37 174.199 L2201.37 170.634 L2203.87 170.634 Q2205.63 170.634 2206.6 169.8 Q2207.57 168.967 2208.75 165.865 L2209.52 163.921 L2199.03 138.412 L2203.55 138.412 L2211.65 158.689 L2219.75 138.412 L2224.26 138.412 L2212.87 166.745 Z" fill="#000000" fill-rule="evenodd" fill-opacity="1"></path><path clip-path="url(#clip100)" d="M2231.55 160.402 L2239.19 160.402 L2239.19 134.037 L2230.88 135.703 L2230.88 131.444 L2239.15 129.778 L2243.82 129.778 L2243.82 160.402 L2251.46 160.402 L2251.46 164.338 L2231.55 164.338 L2231.55 160.402 Z" fill="#000000" fill-rule="evenodd" fill-opacity="1"></path><polyline clip-path="url(#clip100)" style="stroke:#e26f46; stroke-linecap:round; stroke-linejoin:round; stroke-width:4; stroke-opacity:1; fill:none" points="
  2024.76,198.898 2174.14,198.898 
  "></polyline>
<path clip-path="url(#clip100)" d="M2212.87 218.585 Q2211.07 223.215 2209.36 224.627 Q2207.64 226.039 2204.77 226.039 L2201.37 226.039 L2201.37 222.474 L2203.87 222.474 Q2205.63 222.474 2206.6 221.64 Q2207.57 220.807 2208.75 217.705 L2209.52 215.761 L2199.03 190.252 L2203.55 190.252 L2211.65 210.529 L2219.75 190.252 L2224.26 190.252 L2212.87 218.585 Z" fill="#000000" fill-rule="evenodd" fill-opacity="1"></path><path clip-path="url(#clip100)" d="M2234.77 212.242 L2251.09 212.242 L2251.09 216.178 L2229.15 216.178 L2229.15 212.242 Q2231.81 209.488 2236.39 204.858 Q2241 200.205 2242.18 198.863 Q2244.42 196.34 2245.3 194.604 Q2246.21 192.844 2246.21 191.155 Q2246.21 188.4 2244.26 186.664 Q2242.34 184.928 2239.24 184.928 Q2237.04 184.928 2234.59 185.692 Q2232.16 186.455 2229.38 188.006 L2229.38 183.284 Q2232.2 182.15 2234.66 181.571 Q2237.11 180.993 2239.15 180.993 Q2244.52 180.993 2247.71 183.678 Q2250.91 186.363 2250.91 190.854 Q2250.91 192.983 2250.1 194.905 Q2249.31 196.803 2247.2 199.395 Q2246.62 200.067 2243.52 203.284 Q2240.42 206.479 2234.77 212.242 Z" fill="#000000" fill-rule="evenodd" fill-opacity="1"></path><polyline clip-path="url(#clip100)" style="stroke:#3da44d; stroke-linecap:round; stroke-linejoin:round; stroke-width:4; stroke-opacity:1; fill:none" points="
  2024.76,250.738 2174.14,250.738 
  "></polyline>
<path clip-path="url(#clip100)" d="M2212.87 270.425 Q2211.07 275.055 2209.36 276.467 Q2207.64 277.879 2204.77 277.879 L2201.37 277.879 L2201.37 274.314 L2203.87 274.314 Q2205.63 274.314 2206.6 273.48 Q2207.57 272.647 2208.75 269.545 L2209.52 267.601 L2199.03 242.092 L2203.55 242.092 L2211.65 262.369 L2219.75 242.092 L2224.26 242.092 L2212.87 270.425 Z" fill="#000000" fill-rule="evenodd" fill-opacity="1"></path><path clip-path="url(#clip100)" d="M2244.91 249.383 Q2248.27 250.101 2250.14 252.369 Q2252.04 254.638 2252.04 257.971 Q2252.04 263.087 2248.52 265.888 Q2245 268.689 2238.52 268.689 Q2236.35 268.689 2234.03 268.249 Q2231.74 267.832 2229.29 266.976 L2229.29 262.462 Q2231.23 263.596 2233.55 264.175 Q2235.86 264.754 2238.38 264.754 Q2242.78 264.754 2245.07 263.018 Q2247.39 261.281 2247.39 257.971 Q2247.39 254.916 2245.23 253.203 Q2243.11 251.467 2239.29 251.467 L2235.26 251.467 L2235.26 247.624 L2239.47 247.624 Q2242.92 247.624 2244.75 246.258 Q2246.58 244.87 2246.58 242.277 Q2246.58 239.615 2244.68 238.203 Q2242.8 236.768 2239.29 236.768 Q2237.36 236.768 2235.17 237.184 Q2232.97 237.601 2230.33 238.481 L2230.33 234.314 Q2232.99 233.573 2235.3 233.203 Q2237.64 232.833 2239.7 232.833 Q2245.03 232.833 2248.13 235.263 Q2251.23 237.67 2251.23 241.791 Q2251.23 244.661 2249.59 246.652 Q2247.94 248.62 2244.91 249.383 Z" fill="#000000" fill-rule="evenodd" fill-opacity="1"></path><polyline clip-path="url(#clip100)" style="stroke:#c271d2; stroke-linecap:round; stroke-linejoin:round; stroke-width:4; stroke-opacity:1; fill:none" points="
  2024.76,302.578 2174.14,302.578 
  "></polyline>
<path clip-path="url(#clip100)" d="M2212.87 322.265 Q2211.07 326.895 2209.36 328.307 Q2207.64 329.719 2204.77 329.719 L2201.37 329.719 L2201.37 326.154 L2203.87 326.154 Q2205.63 326.154 2206.6 325.32 Q2207.57 324.487 2208.75 321.385 L2209.52 319.441 L2199.03 293.932 L2203.55 293.932 L2211.65 314.209 L2219.75 293.932 L2224.26 293.932 L2212.87 322.265 Z" fill="#000000" fill-rule="evenodd" fill-opacity="1"></path><path clip-path="url(#clip100)" d="M2243.59 289.372 L2231.79 307.821 L2243.59 307.821 L2243.59 289.372 M2242.36 285.298 L2248.24 285.298 L2248.24 307.821 L2253.17 307.821 L2253.17 311.709 L2248.24 311.709 L2248.24 319.858 L2243.59 319.858 L2243.59 311.709 L2227.99 311.709 L2227.99 307.196 L2242.36 285.298 Z" fill="#000000" fill-rule="evenodd" fill-opacity="1"></path><polyline clip-path="url(#clip100)" style="stroke:#ac8d18; stroke-linecap:round; stroke-linejoin:round; stroke-width:4; stroke-opacity:1; fill:none" points="
  2024.76,354.418 2174.14,354.418 
  "></polyline>
<path clip-path="url(#clip100)" d="M2212.87 374.105 Q2211.07 378.735 2209.36 380.147 Q2207.64 381.559 2204.77 381.559 L2201.37 381.559 L2201.37 377.994 L2203.87 377.994 Q2205.63 377.994 2206.6 377.16 Q2207.57 376.327 2208.75 373.225 L2209.52 371.281 L2199.03 345.772 L2203.55 345.772 L2211.65 366.049 L2219.75 345.772 L2224.26 345.772 L2212.87 374.105 Z" fill="#000000" fill-rule="evenodd" fill-opacity="1"></path><path clip-path="url(#clip100)" d="M2230.79 337.138 L2249.15 337.138 L2249.15 341.073 L2235.07 341.073 L2235.07 349.545 Q2236.09 349.198 2237.11 349.036 Q2238.13 348.85 2239.15 348.85 Q2244.93 348.85 2248.31 352.022 Q2251.69 355.193 2251.69 360.61 Q2251.69 366.188 2248.22 369.29 Q2244.75 372.369 2238.43 372.369 Q2236.25 372.369 2233.98 371.998 Q2231.74 371.628 2229.33 370.887 L2229.33 366.188 Q2231.42 367.323 2233.64 367.878 Q2235.86 368.434 2238.34 368.434 Q2242.34 368.434 2244.68 366.327 Q2247.02 364.221 2247.02 360.61 Q2247.02 356.999 2244.68 354.892 Q2242.34 352.786 2238.34 352.786 Q2236.46 352.786 2234.59 353.202 Q2232.73 353.619 2230.79 354.499 L2230.79 337.138 Z" fill="#000000" fill-rule="evenodd" fill-opacity="1"></path></svg>